<svg width="72" height="72" viewBox="0 0 72 72" fill="none" xmlns="http://www.w3.org/2000/svg">
<g id="Web3 App Logo 1">
<rect width="72" height="72" rx="20" fill="#404347"/>
<path id="Vector" d="M3 17.025C3 9.27921 9.27921 3 17.025 3H54.975C62.7208 3 69 9.27921 69 17.025V54.975C69 62.7208 62.7208 69 54.975 69H17.025C9.27921 69 3 62.7208 3 54.975V17.025Z" fill="#404347"/>
<path id="Vector_2" d="M8.68045 23.1055C8.0872 21.0596 9.35645 18.9403 11.4402 18.4978L46.2048 11.1135C47.8551 10.763 49.5315 11.5838 50.2669 13.1022L65.8816 45.3499L21.8816 68.633L8.68045 23.1055Z" fill="url(#paint0_linear_1749_273139)"/>
<path id="Vector_3" d="M9.13698 25.6216C8.51303 23.4629 9.95961 21.2561 12.1878 20.9671L58.265 14.9912C60.1795 14.7429 61.9585 16.0215 62.3334 17.9152L69.0004 51.5829L21.5171 68.4499L9.13698 25.6216Z" fill="white"/>
<path id="Vector_4" d="M3 28.6659C3 24.6159 6.28324 21.3325 10.3333 21.3325H54.3333C62.4335 21.3325 69 27.8991 69 35.9992V54.3325C69 62.4328 62.4335 68.9992 54.3333 68.9992H17.6667C9.56649 68.9992 3 62.4328 3 54.3325V28.6659Z" fill="black"/>
<path id="Vector_5" d="M46.6641 48.8965V35.1562H49.3443V48.8965H46.6641Z" fill="#F7A600"/>
<path id="Vector_6" d="M16.0763 52.9981H10.3301V39.2578H15.845C18.5253 39.2578 20.0872 40.7632 20.0872 43.1173C20.0872 44.6415 19.0845 45.6262 18.3909 45.9544C19.2202 46.3406 20.2808 47.2082 20.2808 49.0417C20.2808 51.6085 18.5253 52.9981 16.0763 52.9981ZM15.6327 41.651H13.0103V44.8164H15.6327C16.7698 44.8164 17.407 44.1801 17.407 43.2345C17.407 42.2873 16.7712 41.651 15.6327 41.651ZM15.8061 47.2284H13.0103V50.6049H15.8061C17.0211 50.6049 17.5991 49.8327 17.5991 48.9072C17.6005 47.9803 17.0211 47.2284 15.8061 47.2284Z" fill="white"/>
<path id="Vector_7" d="M27.6706 47.3629V52.9981H25.0092V47.3629L20.8828 39.2578H23.7942L26.3588 44.7962L28.8844 39.2578H31.7958L27.6706 47.3629Z" fill="white"/>
<path id="Vector_8" d="M39.4229 52.9981H33.6768V39.2578H39.1918C41.8719 39.2578 43.4338 40.7632 43.4338 43.1173C43.4338 44.6415 42.4311 45.6262 41.7375 45.9544C42.5668 46.3406 43.6274 47.2082 43.6274 49.0417C43.626 51.6085 41.8705 52.9981 39.4229 52.9981ZM38.9794 41.651H36.3569V44.8164H38.9794C40.1164 44.8164 40.7536 44.1801 40.7536 43.2345C40.7522 42.2873 40.1164 41.651 38.9794 41.651ZM39.1527 47.2284H36.3569V50.6049H39.1527C40.3679 50.6049 40.9457 49.8327 40.9457 48.9072C40.9457 47.9803 40.3663 47.2284 39.1527 47.2284Z" fill="white"/>
<path id="Vector_9" d="M58.078 41.651V52.9981H55.3977V41.651H51.8115V39.2578H61.6654V41.651H58.078Z" fill="white"/>
</g>
<defs>
<linearGradient id="paint0_linear_1749_273139" x1="8.49814" y1="22.1961" x2="66.4769" y2="19.2918" gradientUnits="userSpaceOnUse">
<stop stop-color="#FFD748"/>
<stop offset="1" stop-color="#F7A600"/>
</linearGradient>
</defs>
</svg>
